inDegrees=no
num_controls=7
num_derivatives=13
num_iterations=124
num_multipliers=7
num_parameters=0
num_slacks=7
num_states=26
objective=0.516753
objective_accelerations=0.039452
objective_balance=0.002167
objective_effort=0.043472
objective_height=0.420029
objective_ligament=0.011633
solver_duration=1652.520321
status=Solve_Succeeded
success=true
DataType=double
version=3
OpenSimVersion=4.5
endheader
time	/jointset/ground_pelvis/pelvis_tilt/value	/jointset/ground_pelvis/pelvis_tx/value	/jointset/ground_pelvis/pelvis_ty/value	/jointset/hip_l/hip_flexion_l/value	/jointset/hip_l/hip_adduction_l/value	/jointset/hip_l/hip_rotation_l/value	/jointset/back/lumbar_extension/value	/jointset/patellofemoral_l/patellar_flexion_l/value	/jointset/knee_l/knee_flexion_l/value	/jointset/knee_l/knee_adduction_l/value	/jointset/knee_l/knee_rotation_l/value	/jointset/ankle_l/ankle_angle_l/value	/jointset/subtalar_l/subtalar_angle_l/value	/jointset/ground_pelvis/pelvis_tilt/speed	/jointset/ground_pelvis/pelvis_tx/speed	/jointset/ground_pelvis/pelvis_ty/speed	/jointset/hip_l/hip_flexion_l/speed	/jointset/hip_l/hip_adduction_l/speed	/jointset/hip_l/hip_rotation_l/speed	/jointset/back/lumbar_extension/speed	/jointset/patellofemoral_l/patellar_flexion_l/speed	/jointset/knee_l/knee_flexion_l/speed	/jointset/knee_l/knee_adduction_l/speed	/jointset/knee_l/knee_rotation_l/speed	/jointset/ankle_l/ankle_angle_l/speed	/jointset/subtalar_l/subtalar_angle_l/speed	/forceset/tau_hip_flexion_l	/forceset/tau_hip_adduction_l	/forceset/tau_hip_rotation_l	/forceset/tau_knee_flexion_l	/forceset/tau_ankle_angle_l	/forceset/tau_subtalar_angle_l	/forceset/tau_lumbar_extension	lambda_cid13_p0	lambda_cid13_p1	lambda_cid13_p2	lambda_cid13_p3	lambda_cid13_p4	lambda_cid13_p5	lambda_cid14_p0	/jointset/ground_pelvis/pelvis_tilt/accel	/jointset/ground_pelvis/pelvis_tx/accel	/jointset/ground_pelvis/pelvis_ty/accel	/jointset/hip_l/hip_flexion_l/accel	/jointset/hip_l/hip_adduction_l/accel	/jointset/hip_l/hip_rotation_l/accel	/jointset/back/lumbar_extension/accel	/jointset/patellofemoral_l/patellar_flexion_l/accel	/jointset/knee_l/knee_flexion_l/accel	/jointset/knee_l/knee_adduction_l/accel	/jointset/knee_l/knee_rotation_l/accel	/jointset/ankle_l/ankle_angle_l/accel	/jointset/subtalar_l/subtalar_angle_l/accel	gamma_cid13_p0	gamma_cid13_p1	gamma_cid13_p2	gamma_cid13_p3	gamma_cid13_p4	gamma_cid13_p5	gamma_cid14_p0
0.5	-0.1177428183514347	-0.05408459757734776	0.8254425554344309	0.8854946713556175	-0.3232959282764433	-0.1238431685096382	-0.7786156209403755	0.7874235218475135	0.7874235218474952	-0.1077405876832432	-0.1744247112994415	0.07410252710238692	-0.005402270731815917	-0.1977365344245516	-0.2037557405725902	-0.3360763963501299	1.476377537549996	-0.04065417140667474	0.4539043785701014	-0.8410499857739819	1.431931509413077	1.431931509413083	0.1333186136242535	0.0006072920138721577	0.2443898364676462	0.03352318311650736	-0.2813859580230776	0.02566392893090186	-0.00350425549759296	-0.2087419960874494	0.1102521907296976	0.04624659932711069	0.3298142524796784	-9.226153316452987	-19.92374895647758	4.383224653618175	-8.649929120273722	-703.5440051501935	-73.65684527728715	-14.9311177714122	0.288614683577936	0.6368062680616938	-0.1144234743680694	-1.433064655675208	0.2119963748062234	-0.3750744515463664	1.706722046500244	-1.106440207518586	-1.106440207518465	-0.282297852755999	-0.004323387079496296	-0.01628527656139524	0.2289867218299848	-8.858138227467794e-08	-3.789453300677492e-07	3.077388649661626e-07	-1.333537772640545e-08	-1.130980417407518e-07	-5.73837667349527e-08	-9.47992031677127e-08
0.51	-0.1197055447314595	-0.05609018493091382	0.8220768101552858	0.900184563715351	-0.3236924498320808	-0.1193230889924049	-0.7869397449018035	0.8016851477594088	0.801685147759396	-0.1064229568807838	-0.1744191765727308	0.07654485399854188	-0.005056455686251665	-0.1947856329734477	-0.1973498734984117	-0.3369963554755638	1.461392057098392	-0.03865877051286896	0.4500761852007202	-0.8236726898771776	1.420173089152064	1.420173089152069	0.1301703439961545	0.0005065095915118154	0.2440238932965883	0.03561509551493573	-0.2877870895143916	0.02599908381672281	-0.003726431023478815	-0.211353153986837	0.1105586448598949	0.04665362701298403	0.3360277917872803	-9.350920925250751	-20.02985415151246	4.344375230265804	-8.714986925306953	-707.5162990648176	-73.56561180102896	-14.40732139489935	0.3017841452003482	0.6442576171235878	-0.06936137093615663	-1.562633853131002	0.1919944340826033	-0.3920854821094451	1.768550856438342	-1.243610603319599	-1.243610603320149	-0.3367086287091786	-0.01183610718671604	-0.05450540723530421	0.1955792911128012	-1.09252216206805e-07	-2.545068136069853e-07	4.882406512604796e-07	2.021643247331188e-08	-1.253946486112204e-07	-4.537275734667393e-08	-1.015601017426151e-07
0.52	-0.1216380708431081	-0.05803135747573257	0.8187041494370251	0.9147183324479233	-0.3240692808812968	-0.1148423701493614	-0.79508703240523	0.8158225759351073	0.8158225759351022	-0.1051379321967766	-0.1744144257577206	0.0789819701490147	-0.004690464358250422	-0.1916964807493945	-0.1908727788231265	-0.3374594841732018	1.445152812117674	-0.03671607012245861	0.4460322437323202	-0.8056826941736615	1.407091962173971	1.407091962173969	0.1267973899331622	0.0004505096742425431	0.2433476873312378	0.03755843960390552	-0.294188221005707	0.02633423870254213	-0.003948606549340718	-0.2139643118862263	0.1108650989900914	0.04706065469885433	0.3422413310948815	-9.478680302097219	-20.13647737881023	4.306798745399151	-8.810001442757294	-711.5590434830583	-73.50589465655125	-13.88066467710985	0.3162648381677735	0.6510517882829997	-0.02305738880887211	-1.683817561497373	0.2014562741271368	-0.4182240713501547	1.829262007842587	-1.37098155093488	-1.370981550934887	-0.3272347397346402	0.004633113937455947	-0.07833783541990684	0.1992730599382674	-1.197299653145577e-07	-1.832154263141944e-07	5.930751116049379e-07	3.890107047542591e-08	-1.278102755255761e-07	-2.995754890145122e-08	-1.05680504402319e-07
0.53	-0.1235389215908974	-0.05990749889606797	0.8153291604006245	0.9290834827477251	-0.3244269261474125	-0.1104032984159786	-0.8030516421697478	0.8298226948307388	0.8298226948307418	-0.1038875700301216	-0.1744101279135705	0.08141077347619789	-0.004305760966841095	-0.1884406364897551	-0.1843530416687584	-0.3374595751417563	1.427668831556482	-0.03481600521311703	0.4416791454593458	-0.7871662500187632	1.392719530537633	1.392719530537637	0.1232982846382994	0.0003714357549658456	0.2423607338386182	0.0393641529203951	-0.3004846975142651	0.02677868231732742	-0.004158269835377472	-0.2163441424486428	0.1106842294350128	0.04732488838473279	0.3482516400649	-9.764172501362227	-20.15254174735981	4.253727046960435	-8.67018209198557	-715.4678190643123	-73.29594923515712	-13.35185212316234	0.3351858612507123	0.6528139583373449	0.02330142807648635	-1.811967253189873	0.1837575926352297	-0.4593982155829186	1.87378692597971	-1.502195363239322	-1.502195363238656	-0.3577682730545114	-0.01969116934228591	-0.1167132999946575	0.1684551904535221	-1.224197729714585e-07	-1.146002193420674e-07	6.520302210002766e-07	5.221891697114483e-08	-1.243307441858827e-07	-1.529607149839584e-08	-1.039697493593046e-07
0.54	-0.1254062255678125	-0.06171836708899496	0.8119565277303294	0.943267537451963	-0.3247656755657755	-0.1060108667673878	-0.8108288972313832	0.8436727251313559	0.8436727251313667	-0.1026715028861542	-0.1744077235135091	0.08382813942969254	-0.003903553497677026	-0.1849871265745631	-0.1778181333414446	-0.3369882109521014	1.408933693004899	-0.03293690057187304	0.4367042267738981	-0.7682117535972142	1.377074243171049	1.377074243171057	0.1199383853957327	7.182085640696726e-05	0.2410602125935291	0.04105925515485347	-0.306781174022823	0.02722312593211302	-0.004367933121418398	-0.2187239730110441	0.1105033598799345	0.04758912207061116	0.3542619490349816	-10.0534420279695	-20.16889628862099	4.201789130808072	-8.558880924038123	-719.4578369792922	-73.12357236657498	-12.82176775759942	0.3557979692783212	0.6540860228721608	0.07123364283303406	-1.934049159575596	0.1972642205076183	-0.5425881538447885	1.916872461172722	-1.625552696984459	-1.625552696984459	-0.2993935292761636	-0.03947508191898036	-0.1410513859140778	0.1771508435320242	-1.164931347678423e-07	-4.894589272471748e-08	6.602251974306314e-07	5.959903669383079e-08	-1.143289100970286e-07	-1.468509290929861e-09	-9.580750068775078e-08
0.55	-0.1272381668919978	-0.06346384175759363	0.8085909650968152	0.9572582270539057	-0.3250856980328292	-0.1016700016071074	-0.8184144275434485	0.8573599977077458	0.8573599977077482	-0.1014890282751924	-0.1744083892571318	0.08623098851279869	-0.003484906754236821	-0.1813807524340007	-0.1712770329178621	-0.3360447241365742	1.389010138523924	-0.03107344147696988	0.4314715466424701	-0.7488262646334974	1.36016932057103	1.36016932057103	0.1165076355795376	-0.0001651254059687386	0.2394595630014398	0.04264794544376439	-0.3126751942214718	0.02741196557152722	-0.004544924403439631	-0.2214311083466495	0.1106992272963431	0.04776854483371316	0.3599395185187624	-10.21904571643408	-20.16700989942604	4.14344672299705	-8.488281948246831	-723.3336960089583	-72.96393500562786	-12.29137266159139	0.3661020662496087	0.6540998960768294	0.1178231683689063	-2.050638073708853	0.1799189635444902	-0.5132823722075724	1.95959374132566	-1.754586500823231	-1.754586500824407	-0.3722342782150928	-0.009696770135677383	-0.1770750076717544	0.1463303212145513	-1.086834077993734e-07	-1.159393422645775e-08	6.460431852701026e-07	6.064862333221308e-08	-1.017690305790462e-07	1.120783501365786e-08	-8.88429072796843e-08
0.5600000000000001	-0.1290334354888165	-0.06514390985316139	0.8052372207249473	0.9710438552147687	-0.3253872794670213	-0.09738139813402449	-0.8258040616404059	0.870871896166273	0.8708718961662669	-0.1003423248764771	-0.1744102029377262	0.08861633044762085	-0.003051052667978719	-0.1776525811012616	-0.1647368187352578	-0.3346245586227928	1.367921404788933	-0.02924869399957253	0.4262518893344114	-0.7290325105756006	1.341999419598503	1.341999419598495	0.1127841429463862	-0.0001577665378966979	0.2375587829367358	0.04410072371843226	-0.3185692144201207	0.02760080521094137	-0.004721915685460025	-0.224138243682255	0.1108950947127517	0.04794796759681505	0.3656170880025432	-10.38930351389165	-20.16528951166464	4.086251624420973	-8.443806897207677	-727.3024518166823	-72.84104740368375	-11.76167831136878	0.3801574077136926	0.6539087746765276	0.1665693824838904	-2.167085010378871	0.1895218970064562	-0.5399835891709255	1.998525480008782	-1.878548371486328	-1.878548371486333	-0.3579420926674214	0.009385944170590296	-0.2010774804368934	0.1499684406834099	-9.861397431308147e-08	-8.204817471105123e-09	6.050087868005144e-07	5.410157026943123e-08	-8.613949654610988e-08	2.25027178347917e-08	-8.331550018780253e-08
0.5700000000000001	-0.1307908140944805	-0.066758659715251	0.8019000453813077	0.9846130229898075	-0.3256705132636376	-0.09314630377071852	-0.8329938809191935	0.8841960474782631	0.8841960474782515	-0.09923279193654001	-0.1744114665888529	0.0909812977959146	-0.002602966040630604	-0.1738005010631191	-0.1582208666248348	-0.3327319356781153	1.345734784308151	-0.02738173095492831	0.4206349050093864	-0.7088820461087639	1.322640449521818	1.322640449521816	0.1092147767821406	-0.0001251780245812101	0.235394070037412	0.04552401578864573	-0.3242600321283625	0.02782329536871089	-0.00488715113405087	-0.2266216356371376	0.1106953215528839	0.04805216256576979	0.3710110500240005	-10.67647613060371	-20.11050249686763	4.020682236374766	-8.226193638030086	-731.0131472425384	-72.64073990926924	-11.23370505402083	0.391118114963243	0.6492915675368792	0.212379454802821	-2.271068862311722	0.1876541042254276	-0.5924417839275062	2.030701790996623	-1.993114279632283	-1.993114279631471	-0.3425710853175768	-0.00422154239067215	-0.2302571880648252	0.1395545653126409	-8.90755534364735e-08	1.234769457367371e-08	5.71609116628633e-07	5.119224530346125e-08	-7.302377181638626e-08	3.218860114259837e-08	-7.615633183036616e-08
0.58	-0.1325089949371434	-0.06830847942857404	0.7985841504079835	0.9979550009009617	-0.325934603310601	-0.08897135643661457	-0.8399807165811177	0.8973209004987114	0.8973209004986952	-0.09815618009964833	-0.1744132877243069	0.09332340021653818	-0.002140437497555891	-0.1698130285010277	-0.1517507889819438	-0.3303684845597121	1.322483432012016	-0.02541994406900321	0.414222483493993	-0.688435787202907	1.302139761290224	1.302139761290227	0.1061999223373108	-0.000269263403373732	0.2329857974027001	0.0469891068637522	-0.3299508498366042	0.02804578552648041	-0.005052386582641738	-0.22910502759201	0.1104955483930161	0.04815635753472957	0.3764050120454608	-10.96907955690801	-20.05564897239826	3.956113073392949	-8.030018761554908	-734.8256841687029	-72.47548424069005	-10.70868835075143	0.4072359125034749	0.6447338811701336	0.260735017229012	-2.380031373449215	0.2084866652626348	-0.6990710272445936	2.057684367812817	-2.106892002468334	-2.106892002468334	-0.2470397487849022	-0.02594883425101192	-0.2497894275145095	0.1583282416620118	-8.022868386550062e-08	5.525253536747151e-08	5.481523484258582e-07	5.302042669612984e-08	-6.318184524898611e-08	3.977904322374641e-08	-6.687207903406816e-08
0.59	-0.1341866685599334	-0.06979384033435665	0.7952942173823996	1.01105922591255	-0.3261789085793295	-0.08486293411631197	-0.8467616921378562	0.9102351628407066	0.9102351628406981	-0.09710849410452298	-0.174416629253515	0.09564021005551387	-0.001663408684395867	-0.1657002497683527	-0.1453299355849769	-0.327541468564676	1.298184525141297	-0.02346452541450449	0.4074830811951977	-0.6677218410713041	1.280531271633211	1.280531271633218	0.1032565587695515	-0.0003671268021579431	0.2303329099621596	0.04837683130409857	-0.3352340651074415	0.02807179497227811	-0.005169253521336346	-0.2317341953001924	0.1105273487777924	0.04814773300573901	0.3814278443481335	-11.17482807435159	-19.9638769488709	3.882083923239106	-7.857958318634511	-738.362991328847	-72.26084856228435	-10.1879638766087	0.4165060262661726	0.6394903756961836	0.3051712063238795	-2.481388963626383	0.1854731800682554	-0.6582649003003521	2.083872196858178	-2.215030482092197	-2.215030482091441	-0.3300659926503748	0.003186936474257476	-0.2795206112407104	0.1229453982623445	-7.126998300277305e-08	8.383983422790632e-08	5.19139350110258e-07	5.232599875494316e-08	-5.25385072104959e-08	4.685810487204792e-08	-5.89064539004609e-08
